<svg width="4137" height="4137" xmlns="http://www.w3.org/2000/svg" xmlns:xlink="http://www.w3.org/1999/xlink" xml:space="preserve" overflow="hidden"><g transform="translate(-530 -530)"><path d="M530 1219.51C530 838.706 838.706 530 1219.51 530L3977.49 530C4358.29 530 4667 838.706 4667 1219.51L4667 3977.49C4667 4358.29 4358.29 4667 3977.49 4667L1219.51 4667C838.706 4667 530 4358.29 530 3977.49Z" fill-rule="evenodd"/><path d="M1349.41 2200.02C1243.39 2200.02 1154.03 2236.73 1081.34 2310.14 1008.64 2383.56 972.288 2479.3 972.288 2597.36 972.288 2716.95 1009.39 2814.2 1083.61 2889.13 1157.82 2964.06 1246.42 3001.52 1349.41 3001.52 1419.08 3001.52 1481.93 2985.25 1537.97 2952.7 1594.01 2920.16 1639.06 2872.86 1673.14 2810.8 1707.22 2748.73 1724.26 2677.59 1724.26 2597.36 1724.26 2477.78 1688.66 2381.66 1617.48 2309.01 1546.3 2236.35 1456.94 2200.02 1349.41 2200.02ZM1322.15 2032C1409.99 2032 1489.5 2050.54 1560.69 2087.63 1631.87 2124.71 1685.63 2179.59 1721.98 2252.24L1721.98 2140.99C1721.98 2110.71 1729.94 2086.87 1745.84 2069.46 1761.74 2052.06 1784.84 2043.35 1815.13 2043.35 1828.76 2043.35 1841.25 2045.62 1852.61 2050.16 1863.97 2054.71 1873.44 2061.14 1881.01 2069.46 1888.58 2077.79 1894.64 2088.01 1899.18 2100.12 1903.73 2112.23 1906 2125.85 1906 2140.99L1906 3049.2C1906 3120.35 1875.33 3155.92 1813.99 3155.92 1752.65 3155.92 1721.98 3120.35 1721.98 3049.2L1721.98 2937.95C1685.63 3010.6 1631.11 3066.61 1558.41 3105.97 1485.72 3145.32 1406.2 3165 1319.87 3165 1232.03 3165 1147.97 3143.05 1067.7 3099.15 987.434 3055.26 920.415 2988.65 866.649 2899.35 812.884 2810.04 786 2708.62 786 2595.09 786 2427.07 839.388 2291.22 946.162 2187.53 1052.94 2083.84 1178.27 2032 1322.15 2032Z" fill="#FFFFFF" fill-rule="evenodd"/><path d="M2555.5 2384.74C2517.63 2384.74 2482.79 2393.84 2450.98 2412.03 2419.17 2430.22 2393.79 2455.24 2374.86 2487.07 2355.92 2518.91 2346.46 2555.29 2346.46 2596.23 2346.46 2659.9 2366.91 2711.82 2407.81 2752 2448.71 2792.17 2498.69 2812.26 2557.77 2812.26 2595.64 2812.26 2630.1 2803.54 2661.16 2786.1 2692.21 2768.67 2716.83 2743.28 2735.01 2709.93 2753.18 2676.57 2762.27 2639.43 2762.27 2598.5 2762.27 2534.83 2742.58 2483.28 2703.19 2443.87 2663.81 2404.45 2614.58 2384.74 2555.5 2384.74ZM2555.5 2030C2725.16 2030 2869.82 2084.2 2989.49 2192.59 3109.17 2300.98 3169 2434.77 3169 2593.95 3169 2756.16 3110.68 2892.23 2994.04 3002.14 2877.4 3112.04 2731.22 3167 2555.5 3167 2385.84 3167 2241.18 3111.29 2121.51 2999.86 2001.83 2888.44 1942 2753.13 1942 2593.95 1942 2489.35 1969.65 2393.84 2024.94 2307.43 2080.23 2221.02 2154.83 2153.18 2248.75 2103.91 2342.67 2054.64 2444.92 2030 2555.5 2030Z" fill="#FFFFFF" fill-rule="evenodd"/><path d="M3985.94 2034C4119.29 2034 4223.47 2071.85 4298.48 2147.55 4373.49 2223.26 4411 2335.3 4411 2483.67L4411 2940.16C4411 3011.32 4391.68 3066.59 4353.04 3105.95 4314.39 3145.32 4258.7 3165 4185.97 3165 4116.26 3165 4061.33 3145.7 4021.17 3107.09 3981.01 3068.48 3960.93 3012.84 3960.93 2940.16L3960.93 2531.37C3960.93 2493.52 3954.49 2461.72 3941.61 2435.98 3928.73 2410.24 3911.68 2391.7 3890.47 2380.34 3869.25 2368.98 3843.49 2363.31 3813.18 2363.31 3781.36 2363.31 3753.7 2370.12 3730.22 2383.75 3706.73 2397.37 3688.54 2418.19 3675.66 2446.2 3662.78 2474.21 3656.34 2507.9 3656.34 2547.26L3654.07 2547.26 3654.07 2940.16C3654.07 3011.32 3634.75 3066.59 3596.1 3105.95 3557.46 3145.32 3501.77 3165 3429.03 3165 3359.33 3165 3304.39 3145.7 3264.24 3107.09 3224.08 3068.48 3204 3012.84 3204 2940.16L3204 2263.38C3204 2192.22 3222.56 2136.96 3259.69 2097.59 3296.82 2058.22 3349.48 2038.54 3417.67 2038.54 3476.77 2038.54 3524.88 2054.44 3562.01 2086.23 3599.14 2118.03 3620.73 2163.45 3626.79 2222.5 3701.04 2096.83 3820.76 2034 3985.94 2034Z" fill="#FFFFFF" fill-rule="evenodd"/></g></svg>