<svg width="4137" height="4137" xmlns="http://www.w3.org/2000/svg" xmlns:xlink="http://www.w3.org/1999/xlink" xml:space="preserve" overflow="hidden"><g transform="translate(-530 -530)"><path d="M2555.34 2384.95C2614.4 2384.95 2663.63 2404.64 2703 2444.02 2742.38 2483.39 2762.07 2534.89 2762.07 2598.5 2762.07 2639.39 2752.98 2676.5 2734.81 2709.82 2716.63 2743.14 2692.02 2768.51 2660.98 2785.93 2629.93 2803.34 2595.47 2812.05 2557.61 2812.05 2498.54 2812.05 2448.56 2791.98 2407.67 2751.85 2366.77 2711.71 2346.33 2659.84 2346.33 2596.23 2346.33 2555.34 2355.79 2518.99 2374.72 2487.18 2393.66 2455.37 2419.02 2430.38 2450.83 2412.21 2482.64 2394.03 2517.47 2384.95 2555.34 2384.95ZM1349.7 2199.79C1457.23 2199.79 1546.59 2236.14 1617.77 2308.84 1688.96 2381.54 1724.55 2477.71 1724.55 2597.36 1724.55 2677.64 1707.51 2748.82 1673.43 2810.92 1639.36 2873.01 1594.3 2920.34 1538.26 2952.91 1482.22 2985.47 1419.37 3001.75 1349.7 3001.75 1246.71 3001.75 1158.1 2964.27 1083.89 2889.29 1009.68 2814.32 972.571 2717.01 972.571 2597.36 972.571 2479.23 1008.92 2383.43 1081.62 2309.98 1154.32 2236.52 1243.68 2199.79 1349.7 2199.79ZM3985.89 2033.95C3820.8 2033.95 3701.15 2096.8 3626.93 2222.51 3620.88 2163.44 3599.29 2118.01 3562.19 2086.2 3525.08 2054.39 3476.99 2038.49 3417.93 2038.49 3349.77 2038.49 3297.14 2058.18 3260.03 2097.56 3222.93 2136.94 3204.37 2192.22 3204.37 2263.4L3204.37 2940.41C3204.37 3013.11 3224.44 3068.77 3264.58 3107.39 3304.71 3146.01 3359.61 3165.32 3429.28 3165.32 3501.98 3165.32 3557.64 3145.63 3596.26 3106.26 3634.89 3066.88 3654.2 3011.6 3654.2 2940.41L3654.2 2547.38 3656.47 2547.38C3656.47 2508 3662.91 2474.31 3675.78 2446.29 3688.65 2418.27 3706.83 2397.44 3730.3 2383.81 3753.78 2370.18 3781.42 2363.36 3813.23 2363.36 3843.52 2363.36 3869.26 2369.04 3890.47 2380.4 3911.67 2391.76 3928.71 2410.32 3941.58 2436.06 3954.46 2461.81 3960.89 2493.62 3960.89 2531.48L3960.89 2940.41C3960.89 3013.11 3980.96 3068.77 4021.1 3107.39 4061.23 3146.01 4116.14 3165.32 4185.81 3165.32 4258.51 3165.32 4314.17 3145.63 4352.79 3106.26 4391.41 3066.88 4410.72 3011.6 4410.72 2940.41L4410.72 2483.77C4410.72 2335.35 4373.23 2223.27 4298.26 2147.54 4223.29 2071.81 4119.17 2033.95 3985.89 2033.95ZM1322.43 2031.68C1178.55 2031.68 1053.22 2083.55 946.445 2187.3 839.669 2291.04 786.281 2426.98 786.281 2595.09 786.281 2708.68 813.165 2810.16 866.931 2899.52 920.698 2988.88 987.717 3055.52 1067.99 3099.44 1148.26 3143.36 1232.32 3165.32 1320.16 3165.32 1406.49 3165.32 1486.01 3145.63 1558.71 3106.26 1631.4 3066.88 1685.93 3010.84 1722.28 2938.14L1722.28 3049.46C1722.28 3120.64 1752.95 3156.24 1814.29 3156.24 1875.63 3156.24 1906.3 3120.64 1906.3 3049.46L1906.3 2140.72C1906.3 2125.58 1904.02 2111.95 1899.48 2099.83 1894.94 2087.72 1888.88 2077.49 1881.31 2069.16 1873.73 2060.83 1864.27 2054.4 1852.91 2049.85 1841.55 2045.31 1829.05 2043.04 1815.42 2043.04 1785.13 2043.04 1762.03 2051.74 1746.13 2069.16 1730.23 2086.58 1722.28 2110.43 1722.28 2140.72L1722.28 2252.04C1685.93 2179.35 1632.16 2124.44 1560.98 2087.34 1489.79 2050.23 1410.28 2031.68 1322.43 2031.68ZM2555.34 2030.54C2444.77 2030.54 2342.54 2055.15 2248.64 2104.38 2154.73 2153.6 2080.14 2221.38 2024.86 2307.7 1969.58 2394.03 1941.94 2489.45 1941.94 2593.96 1941.94 2752.98 2001.76 2888.16 2121.41 2999.48 2241.06 3110.8 2385.7 3166.46 2555.34 3166.46 2731.02 3166.46 2877.18 3111.56 2993.8 3001.75 3110.42 2891.95 3168.73 2756.01 3168.73 2593.96 3168.73 2434.93 3108.91 2301.27 2989.26 2192.98 2869.61 2084.69 2724.97 2030.54 2555.34 2030.54ZM1219.51 530 3977.49 530C4358.29 530 4667 838.706 4667 1219.51L4667 3977.49C4667 4358.29 4358.29 4667 3977.49 4667L1219.51 4667C838.706 4667 530 4358.29 530 3977.49L530 1219.51C530 838.706 838.706 530 1219.51 530Z" fill-rule="evenodd"/></g></svg>