<svg width="10459" height="1740" xmlns="http://www.w3.org/2000/svg" xmlns:xlink="http://www.w3.org/1999/xlink" xml:space="preserve" overflow="hidden"><defs><clipPath id="clip0"><rect x="-2643" y="1403" width="10459" height="1740"/></clipPath></defs><g clip-path="url(#clip0)" transform="translate(2643 -1403)"><path d="M5949.56 2361.59C5911.69 2361.59 5876.85 2370.68 5845.03 2388.85 5813.22 2407.02 5787.85 2432.01 5768.91 2463.81 5749.98 2495.61 5740.51 2531.96 5740.51 2572.84 5740.51 2636.45 5760.96 2688.31 5801.86 2728.44 5842.76 2768.57 5892.75 2788.64 5951.83 2788.64 5989.7 2788.64 6024.17 2779.93 6055.22 2762.52 6086.28 2745.1 6110.89 2719.74 6129.07 2686.42 6147.25 2653.1 6156.34 2616 6156.34 2575.11 6156.34 2511.51 6136.64 2460.02 6097.26 2420.65 6057.87 2381.28 6008.64 2361.59 5949.56 2361.59ZM4755.89 2113.99C4636.21 2113.99 4535.47 2155.64 4453.67 2238.93 4371.87 2322.22 4330.97 2434.28 4330.97 2575.11 4330.97 2714.44 4373.01 2826.12 4457.08 2910.17 4541.16 2994.21 4640.38 3036.24 4754.75 3036.24 4869.12 3036.24 4967.59 2994.21 5050.15 2910.17 5132.7 2826.12 5173.98 2714.06 5173.98 2573.98 5173.98 2433.9 5133.84 2322.22 5053.55 2238.93 4973.27 2155.64 4874.04 2113.99 4755.89 2113.99ZM66.9497 2113.99C-52.7229 2113.99-153.46 2155.64-235.262 2238.93-317.065 2322.22-357.966 2433.9-357.966 2573.98-357.966 2714.06-315.928 2826.12-231.854 2910.17-147.78 2994.21-48.178 3036.24 66.9497 3036.24 119.97 3036.24 171.854 3025.64 222.601 3004.44 273.349 2983.23 318.037 2953.71 356.666 2915.85 395.294 2877.99 426.349 2829.15 449.829 2769.33 473.309 2709.51 485.05 2644.78 485.05 2575.11 485.05 2434.28 444.527 2322.22 363.483 2238.93 282.438 2155.64 183.594 2113.99 66.9497 2113.99ZM-2102.2 2113.99C-2221.87 2113.99-2322.61 2155.64-2404.41 2238.93-2486.21 2322.22-2527.11 2434.28-2527.11 2575.11-2527.11 2714.44-2485.08 2826.12-2401 2910.17-2316.93 2994.21-2217.71 3036.24-2103.33 3036.24-1988.96 3036.24-1890.5 2994.21-1807.94 2910.17-1725.38 2826.12-1684.1 2714.06-1684.1 2573.98-1684.1 2433.9-1724.24 2322.22-1804.53 2238.93-1884.82 2155.64-1984.04 2113.99-2102.2 2113.99ZM1529.23 2109.45C1433.79 2109.45 1349.34 2140.11 1275.87 2201.45 1202.4 2262.78 1154.3 2344.17 1131.58 2445.64L1883.7 2445.64C1880.67 2345.69 1846.21 2264.67 1780.31 2202.58 1714.42 2140.49 1630.72 2109.45 1529.23 2109.45ZM-1356.16 2020.86C-1348.59 2020.86-1341.39 2022.37-1334.58 2025.4-1327.76 2028.43-1321.7 2032.6-1316.4 2037.9-1311.1 2043.2-1306.93 2049.63-1303.9 2057.2-1300.87 2064.78-1299.36 2073.86-1299.36 2084.46L-1299.36 2706.86C-1299.36 2930.99-1202.4 3043.05-1008.5 3043.05-905.494 3043.05-823.692 3005.95-763.098 2931.75-702.504 2857.54-672.207 2760.62-672.207 2640.99L-672.207 2084.46C-672.207 2075.38-670.692 2066.67-667.662 2058.34-664.632 2050.01-660.467 2043.2-655.165 2037.9-649.862 2032.6-643.804 2028.43-636.986 2025.4-630.17 2022.37-622.974 2020.86-615.4 2020.86-598.736 2020.86-585.103 2026.54-574.499 2037.9-563.895 2049.25-558.593 2064.78-558.593 2084.46L-558.593 3074.85C-558.593 3091.51-563.895 3105.14-574.499 3115.74-585.103 3126.34-597.601 3131.64-611.991 3131.64-626.383 3131.64-638.88 3126.34-649.485 3115.74-660.088 3105.14-665.39 3091.51-665.39 3074.85L-665.39 2890.86C-686.598 2945.38-715.001 2991.19-750.6 3028.29-786.199 3065.39-827.858 3093.78-875.576 3113.47-923.294 3133.16-975.934 3143-1033.5 3143-1109.24 3143-1174.76 3128.23-1230.05 3098.71-1285.34 3069.17-1329.65 3021.47-1362.98 2955.6-1396.31 2889.72-1412.97 2807.57-1412.97 2709.14L-1412.97 2084.46C-1412.97 2064.78-1407.67 2049.25-1397.06 2037.9-1386.46 2026.54-1372.83 2020.86-1356.16 2020.86ZM4048.73 2016.32C4086.6 2016.32 4105.54 2036.76 4105.54 2077.65L4105.54 3072.58C4105.54 3113.47 4086.6 3133.91 4048.73 3133.91 4010.86 3133.91 3991.93 3113.47 3991.93 3072.58L3991.93 2077.65C3991.93 2036.76 4010.86 2016.32 4048.73 2016.32ZM837.981 2016.32C875.852 2016.32 894.788 2036.76 894.788 2077.65L894.788 3072.58C894.788 3113.47 875.852 3133.91 837.981 3133.91 800.11 3133.91 781.174 3113.47 781.174 3072.58L781.174 2077.65C781.174 2036.76 800.11 2016.32 837.981 2016.32ZM7391.08 2007.23C7524.39 2007.23 7628.54 2045.09 7703.52 2120.81 7778.51 2196.52 7816 2308.59 7816 2456.99L7816 2913.57C7816 2984.75 7796.68 3040.02 7758.06 3079.4 7719.43 3118.77 7663.76 3138.46 7591.04 3138.46 7521.36 3138.46 7466.45 3119.15 7426.3 3080.53 7386.16 3041.92 7366.09 2986.26 7366.09 2913.57L7366.09 2504.7C7366.09 2466.84 7359.65 2435.04 7346.77 2409.29 7333.9 2383.55 7316.86 2365 7295.65 2353.64 7274.44 2342.28 7248.69 2336.6 7218.39 2336.6 7186.58 2336.6 7158.93 2343.42 7135.45 2357.05 7111.97 2370.68 7093.79 2391.5 7080.92 2419.51 7068.04 2447.53 7061.6 2481.22 7061.6 2520.6L7059.33 2520.6 7059.33 2913.57C7059.33 2984.75 7040.02 3040.02 7001.39 3079.4 6962.76 3118.77 6907.09 3138.46 6834.38 3138.46 6764.69 3138.46 6709.78 3119.15 6669.64 3080.53 6629.49 3041.92 6609.42 2986.26 6609.42 2913.57L6609.42 2236.66C6609.42 2165.48 6627.98 2110.21 6665.09 2070.83 6702.21 2031.46 6754.85 2011.77 6823.01 2011.77 6882.09 2011.77 6930.19 2027.67 6967.3 2059.48 7004.42 2091.28 7026 2136.71 7032.06 2195.77 7106.29 2070.08 7225.96 2007.23 7391.08 2007.23ZM5949.56 2007.23C6119.22 2007.23 6263.89 2061.37 6383.57 2169.65 6503.24 2277.92 6563.08 2411.56 6563.08 2570.57 6563.08 2732.61 6504.75 2868.52 6388.11 2978.31 6271.47 3088.1 6125.28 3143 5949.56 3143 5779.9 3143 5635.23 3087.35 5515.56 2976.04 5395.88 2864.74 5336.04 2729.58 5336.04 2570.57 5336.04 2466.08 5363.69 2370.68 5418.98 2284.36 5474.28 2198.04 5548.88 2130.27 5642.8 2081.05 5736.72 2031.84 5838.98 2007.23 5949.56 2007.23ZM4739.98 2007.23C4835.42 2007.23 4921.38 2029.95 4997.88 2075.38 5074.38 2120.81 5132.33 2186.68 5171.71 2273L5171.71 2082.19C5171.71 2041.3 5190.65 2020.86 5228.52 2020.86 5266.39 2020.86 5285.33 2041.3 5285.33 2082.19L5285.33 3063.5C5285.33 3107.41 5266.39 3129.37 5228.52 3129.37 5190.65 3129.37 5171.71 3107.41 5171.71 3063.5L5171.71 2868.14C5132.33 2954.46 5073.25 3021.85 4994.48 3070.31 4915.7 3118.77 4830.87 3143 4739.98 3143 4652.12 3143 4568.8 3121.04 4490.03 3077.12 4411.26 3033.21 4345.74 2966.96 4293.48 2878.37 4241.21 2789.78 4215.08 2687.93 4215.08 2572.84 4215.08 2401.72 4266.59 2264.67 4369.6 2161.69 4472.61 2058.72 4596.07 2007.23 4739.98 2007.23ZM3591.57 2007.23C3688.53 2007.23 3771.09 2023.13 3839.25 2054.93 3872.58 2070.08 3889.24 2091.28 3889.24 2118.54 3889.24 2126.11 3888.11 2132.54 3885.84 2137.84 3883.56 2143.14 3880.53 2147.69 3876.75 2151.47 3872.96 2155.26 3868.79 2158.29 3864.25 2160.56 3859.7 2162.83 3855.16 2163.97 3850.62 2163.97 3846.07 2163.97 3832.44 2159.42 3809.71 2150.34 3786.99 2141.25 3756.69 2132.54 3718.82 2124.21 3680.95 2115.89 3640.81 2111.72 3598.39 2111.72 3472.66 2111.72 3367 2154.12 3281.41 2238.93 3195.82 2323.73 3153.03 2435.79 3153.03 2575.11 3153.03 2715.95 3196.58 2828.39 3283.68 2912.44 3370.79 2996.49 3477.96 3038.51 3605.21 3038.51 3653.68 3038.51 3697.24 3033.59 3735.86 3023.74 3774.49 3013.9 3804.03 3004.06 3824.48 2994.21 3844.93 2984.37 3858.19 2979.45 3864.25 2979.45 3874.85 2979.45 3883.56 2983.23 3890.38 2990.81 3897.2 2998.38 3900.6 3008.22 3900.6 3020.34 3900.6 3044.57 3884.7 3066.52 3852.89 3086.21 3789.26 3124.07 3701.4 3143 3589.3 3143 3434.79 3143 3304.13 3090.75 3197.33 2986.26 3090.54 2881.77 3037.14 2744.72 3037.14 2575.11 3037.14 2407.02 3089.4 2270.35 3193.93 2165.1 3298.45 2059.85 3431 2007.23 3591.57 2007.23ZM2563.66 2007.23C2683.34 2007.23 2778.39 2042.06 2848.83 2111.72 2919.28 2181.38 2954.5 2285.11 2954.5 2422.92L2954.5 3070.31C2954.5 3109.68 2935.56 3129.37 2897.69 3129.37 2859.82 3129.37 2840.88 3109.68 2840.88 3070.31L2840.88 2427.46C2840.88 2318.43 2813.99 2237.79 2760.22 2185.55 2706.44 2133.3 2632.59 2107.18 2538.67 2107.18 2437.17 2107.18 2354.62 2140.11 2290.99 2205.99 2227.37 2271.86 2195.56 2356.29 2195.56 2459.27L2195.56 3070.31C2195.56 3109.68 2176.62 3129.37 2138.75 3129.37 2100.88 3129.37 2081.94 3109.68 2081.94 3070.31L2081.94 2079.92C2081.94 2040.55 2100.12 2020.86 2136.48 2020.86 2172.83 2020.86 2191.01 2040.55 2191.01 2079.92L2191.01 2229.84C2224.34 2158.67 2273.19 2103.77 2337.57 2065.15 2401.95 2026.54 2477.32 2007.23 2563.66 2007.23ZM1529.23 2007.23C1662.54 2007.23 1771.6 2048.87 1856.44 2132.16 1941.27 2215.45 1983.68 2328.27 1983.68 2470.62 1983.68 2511.51 1967.78 2531.96 1935.97 2531.96L1120.22 2531.96C1118.7 2544.07 1117.95 2556.19 1117.95 2568.3 1117.95 2710.65 1160.36 2824.98 1245.19 2911.3 1330.02 2997.62 1436.82 3040.78 1565.58 3040.78 1671.62 3040.78 1771.6 3008.98 1865.52 2945.38 1870.07 2942.35 1876.51 2937.8 1884.84 2931.75 1893.17 2925.69 1899.61 2921.15 1904.15 2918.12 1908.7 2915.09 1914 2912.44 1920.06 2910.17 1926.12 2907.9 1931.42 2906.76 1935.97 2906.76 1943.54 2906.76 1950.36 2908.65 1956.42 2912.44 1962.48 2916.22 1966.64 2921.15 1968.91 2927.2 1971.19 2933.26 1972.32 2940.08 1972.32 2947.65 1972.32 2967.33 1961.72 2987.02 1940.51 3006.71 1910.21 3032.45 1874.99 3055.55 1834.85 3075.99 1794.71 3096.43 1750.4 3112.71 1701.92 3124.83 1653.45 3136.94 1604.97 3143 1556.5 3143 1392.89 3143 1259.96 3090.75 1157.71 2986.26 1055.46 2881.77 1004.33 2744.72 1004.33 2575.11 1004.33 2466.08 1027.81 2368.03 1074.77 2280.95 1121.73 2193.87 1184.98 2126.49 1264.51 2078.78 1344.04 2031.08 1432.28 2007.23 1529.23 2007.23ZM-2118.1 2007.23C-2022.67 2007.23-1936.7 2029.95-1860.2 2075.38-1783.7 2120.81-1725.76 2186.68-1686.37 2273L-1686.37 2082.19C-1686.37 2041.3-1667.44 2020.86-1629.56 2020.86-1591.69 2020.86-1572.76 2041.3-1572.76 2082.19L-1572.76 3063.5C-1572.76 3107.41-1591.69 3129.37-1629.56 3129.37-1667.44 3129.37-1686.37 3107.41-1686.37 3063.5L-1686.37 2868.14C-1725.76 2954.46-1784.84 3021.85-1863.61 3070.31-1942.38 3118.77-2027.21 3143-2118.1 3143-2205.97 3143-2289.28 3121.04-2368.05 3077.12-2446.83 3033.21-2512.34 2966.96-2564.61 2878.37-2616.87 2789.78-2643 2687.93-2643 2572.84-2643 2401.72-2591.5 2264.67-2488.49 2161.69-2385.48 2058.72-2262.01 2007.23-2118.1 2007.23ZM4051.01 1477.96C4069.18 1477.96 4085.47 1482.13 4099.86 1490.45 4114.25 1498.78 4125.23 1510.52 4132.81 1525.66 4140.38 1540.81 4144.17 1556.71 4144.17 1573.37 4144.17 1602.14 4135.46 1625.61 4118.04 1643.78 4100.62 1661.96 4078.27 1671.04 4051.01 1671.04 4020.71 1671.04 3997.23 1661.96 3980.56 1643.78 3963.9 1625.61 3955.57 1602.52 3955.57 1574.5 3955.57 1546.49 3963.9 1523.39 3980.56 1505.22 3997.23 1487.05 4020.71 1477.96 4051.01 1477.96ZM840.253 1477.96C858.432 1477.96 874.716 1482.13 889.108 1490.45 903.499 1498.78 914.481 1510.52 922.056 1525.66 929.63 1540.81 933.417 1556.71 933.417 1573.37 933.417 1602.14 924.706 1625.61 907.285 1643.78 889.865 1661.96 867.521 1671.04 840.253 1671.04 809.956 1671.04 786.476 1661.96 769.813 1643.78 753.149 1625.61 744.818 1602.52 744.818 1574.5 744.818 1546.49 753.149 1523.39 769.813 1505.22 786.476 1487.05 809.956 1477.96 840.253 1477.96ZM1501.96 1414.36C1529.23 1414.36 1551.95 1429.5 1570.13 1459.79L1776.91 1782.35C1782.97 1791.43 1786 1800.52 1786 1809.61 1786 1820.21 1782.21 1828.54 1774.63 1834.59 1767.06 1840.65 1757.97 1843.68 1747.37 1843.68 1729.19 1843.68 1714.04 1834.59 1701.92 1816.42L1501.96 1521.12 1299.73 1816.42C1286.09 1836.11 1269.43 1845.95 1249.74 1845.95 1227.01 1845.95 1215.65 1835.35 1215.65 1814.15 1215.65 1805.06 1217.93 1795.98 1222.47 1786.89L1433.79 1459.79C1451.97 1429.5 1474.69 1414.36 1501.96 1414.36ZM539.585 1403C575.941 1403 594.119 1423.44 594.119 1464.33L594.119 3065.77C594.119 3109.68 575.941 3131.64 539.585 3131.64 501.713 3131.64 482.777 3109.68 482.777 3065.77L482.777 2870.42C443.391 2955.22 383.554 3021.85 303.267 3070.31 222.981 3118.77 137.391 3143 46.5002 3143-5.00537 3143-55.7524 3134.67-105.742 3118.01-155.733 3101.35-203.072 3077.12-247.76 3045.32-292.448 3013.52-331.455 2974.91-364.782 2929.48-398.11 2884.04-424.619 2830.66-444.312 2769.33-464.005 2708-473.852 2642.5-473.852 2572.84-473.852 2400.21-423.104 2262.78-321.609 2160.56-220.114 2058.34-96.6538 2007.23 48.7717 2007.23 141.178 2007.23 226.767 2029.95 305.54 2075.38 384.311 2120.81 443.391 2185.92 482.777 2270.73L482.777 1464.33C482.777 1423.44 501.713 1403 539.585 1403Z" fill="#FFFFFF" fill-rule="evenodd"/></g></svg>