<?xml version="1.0" encoding="UTF-8"?>
<svg xmlns="http://www.w3.org/2000/svg" version="1.1" xmlns:cc="http://creativecommons.org/ns#" xmlns:dc="http://purl.org/dc/elements/1.1/" xmlns:rdf="http://www.w3.org/1999/02/22-rdf-syntax-ns#" xmlns:svg="http://www.w3.org/2000/svg" viewBox="0 0 500 401.3">
  <defs>
    <style>
      .cls-1 {
        fill-rule: evenodd;
      }
    </style>
  </defs>
  <!-- Generator: Adobe Illustrator 28.7.3, SVG Export Plug-In . SVG Version: 1.2.0 Build 164)  -->
  <g>
    <g id="Camada_1">
      <g>
        <path class="cls-1" d="M483.5,212.2c-24,35.7-100,124.5-234.1,123.8-137.4-.8-208.6-87.9-232.6-121.9-6-8.5-6.3-16.4-.1-25.4,24.1-35.2,98.4-123.1,232.3-123.2,136.9-.1,214.2,92.3,234.1,123.6,5.9,9.2,5.9,14.5.2,23.2h0ZM249.6,81.2c-89.2,0-148.3,72.9-148.3,120.1s57.8,120.1,149,120.1,150.5-76.3,149.6-120.1c.6-48.2-60.9-120.1-150.3-120.1h0"/>
        <path class="cls-1" d="M249.9,305.9c58.9,0,106.7-47,106.7-104.9s-47.8-104.9-106.7-104.9-106.7,47-106.7,104.9,47.8,104.9,106.7,104.9h0"/>
      </g>
    </g>
  </g>
</svg>