<svg width="389" height="390" xmlns="http://www.w3.org/2000/svg" xmlns:xlink="http://www.w3.org/1999/xlink" xml:space="preserve" overflow="hidden"><g transform="translate(-931 -665)"><path d="M1307.84 869.43C1289.11 897.276 1229.8 966.543 1125.14 965.997 1017.91 965.373 962.341 897.432 943.611 870.912 938.928 864.281 938.694 858.119 943.533 851.099 962.341 823.642 1020.33 755.078 1124.83 755 1231.67 754.922 1292 826.996 1307.53 851.411 1312.13 858.587 1312.13 862.721 1307.68 869.508L1307.68 869.508ZM1125.3 767.246C1055.68 767.246 1009.56 824.11 1009.56 860.927 1009.56 897.745 1054.67 954.608 1125.84 954.608 1197.02 954.608 1243.3 895.092 1242.6 860.927 1243.06 823.33 1195.07 767.246 1125.3 767.246L1125.3 767.246" fill-rule="evenodd"/><path d="M1125.5 942C1171.59 942 1209 905.484 1209 860.5 1209 815.516 1171.59 779 1125.5 779 1079.41 779 1042 815.516 1042 860.5 1042 905.484 1079.41 942 1125.5 942L1125.5 942" fill-rule="evenodd"/></g></svg>