<svg width="390" height="391" xmlns="http://www.w3.org/2000/svg" xmlns:xlink="http://www.w3.org/1999/xlink" xml:space="preserve" overflow="hidden"><g transform="translate(-1697 -194)"><path d="M1892 584.981C1999.63 584.981 2087 497.375 2087 389.982 2087 282.587 1999.63 194.981 1892 194.981 1784.37 194.981 1697 282.587 1697 389.982 1697 497.375 1784.37 584.981 1892 584.981M1738.93 464.504C1736.5 440.289 1736.36 415.302 1736.36 389.982 1736.36 364.661 1736.5 339.675 1738.93 315.459 1740.26 302.27 1746.82 299.245 1759.06 297.959 1801.35 293.51 1848.18 292.48 1892 292.614 1935.83 292.48 1982.65 293.51 2024.95 297.959 2037.18 299.245 2043.74 302.27 2045.07 315.459 2047.5 339.675 2047.64 364.661 2047.64 389.982 2047.64 415.302 2047.5 440.289 2045.07 464.504 2043.74 477.693 2037.18 480.717 2024.95 482.004 1982.65 486.452 1935.83 487.484 1892 487.349 1848.18 487.484 1801.35 486.452 1759.06 482.004 1746.82 480.717 1740.26 477.693 1738.93 464.504" fill-rule="evenodd"/><path d="M1892 468.981C1935.75 468.981 1971 433.713 1971 390.482 1971 347.249 1935.75 311.981 1892 311.981 1848.25 311.981 1813 347.249 1813 390.482 1813 433.713 1848.25 468.981 1892 468.981" fill-rule="evenodd"/></g></svg>