<svg width="383" height="386" xmlns="http://www.w3.org/2000/svg" xmlns:xlink="http://www.w3.org/1999/xlink" xml:space="preserve" overflow="hidden"><defs><clipPath id="clip0"><rect x="2170" y="1205" width="383" height="386"/></clipPath></defs><g clip-path="url(#clip0)" transform="translate(-2170 -1205)"><path d="M2336.57 1205.72C2308.45 1209.33 2279.41 1220.82 2254.64 1238.16 2234.97 1251.9 2234.29 1253.66 2250.14 1249.57 2280.48 1241.62 2308.14 1243.22 2341.98 1254.79 2363.94 1262.26 2390.77 1276.71 2413.17 1293.42 2429.87 1305.94 2442.82 1317.51 2466.83 1341.52 2493.2 1367.94 2497.77 1371.16 2508.29 1370.99 2524.37 1370.91 2540 1355.41 2540 1339.43 2540 1320.56 2521.33 1286.51 2497.47 1261.85 2469.04 1232.46 2436.19 1215.03 2395.34 1207.56 2382.46 1205.24 2349 1204.19 2336.57 1205.72Z" fill-rule="evenodd"/><path d="M2274.44 1256.26C2272.76 1256.49 2267.75 1257.37 2263.28 1258.25 2258.64 1258.97 2255 1260.09 2255 1260.57 2255 1261.21 2257.05 1262.73 2259.63 1264.09 2265.93 1267.36 2272.61 1274.8 2275.88 1282.07 2278.23 1287.26 2278.69 1290.22 2278.53 1299.97 2278.46 1310.04 2277.62 1314.75 2272.39 1333.85 2262.29 1370.38 2257.89 1394.75 2256.37 1423.6 2253.56 1477.3 2264.49 1520.54 2288.78 1551.62 2293.04 1557.06 2296.76 1561.38 2297.06 1560.97 2297.36 1560.73 2297.89 1556.82 2298.12 1552.35 2298.88 1541.32 2302.6 1532.92 2309.81 1526.37 2317.78 1518.94 2325.6 1515.66 2346.71 1510.23 2384.75 1500.56 2414.28 1489.85 2439.41 1476.82 2483.52 1453.73 2515.55 1421.28 2529.52 1385.88 2534.76 1372.61 2534.61 1372.05 2525.42 1377.01 2515.1 1382.44 2508.11 1383.4 2498.93 1380.84 2488 1377.73 2483.14 1374.05 2462.11 1352.31 2406.99 1295.73 2363.87 1268.72 2311.1 1258.17 2304.04 1256.65 2279.29 1255.46 2274.44 1256.26Z" fill-rule="evenodd"/><path d="M2223.28 1270.44C2216.21 1274.04 2210.13 1280.51 2201.24 1293.86 2178.66 1328.16 2167.34 1371.33 2170.53 1411.23 2175.24 1471.43 2205.5 1524.92 2253.69 1558.41 2262.65 1564.65 2292.75 1580 2296.1 1580 2298.53 1580 2298.68 1578 2296.25 1576.64 2292.83 1574.64 2277.02 1555.93 2271.55 1547.3 2253.3 1518.76 2244.56 1483.74 2244.56 1439.53 2244.56 1404.67 2248.97 1375.57 2260.6 1333.2 2270.48 1297.94 2269.34 1284.51 2256.5 1275.47 2245.55 1267.8 2232.25 1265.88 2223.28 1270.44Z" fill-rule="evenodd"/><path d="M2546.09 1371.64C2537.25 1401.68 2525.83 1421.54 2504.5 1443.32 2471.44 1477.04 2423.67 1501.78 2358.85 1518.68 2324.34 1527.73 2318.01 1530.69 2312.15 1540.79 2309.33 1545.59 2308.87 1547.83 2309.03 1555.76 2309.03 1563.53 2309.64 1566.41 2312.68 1572.42 2315.58 1578.51 2317.41 1580.59 2322.74 1583.79 2332.41 1589.64 2340.11 1591 2364.33 1591 2389.09 1591 2402.27 1589 2424.05 1581.71 2452.54 1572.34 2473.42 1559.13 2495.96 1536.14 2531.54 1500.02 2550.66 1457.18 2552.87 1408.72 2553.48 1393.59 2551.88 1371.24 2549.75 1365.32 2548.83 1362.75 2548.37 1363.47 2546.09 1371.64Z" fill-rule="evenodd"/></g></svg>