<?xml version="1.0" encoding="UTF-8"?>
<svg xmlns="http://www.w3.org/2000/svg" xmlns:xlink="http://www.w3.org/1999/xlink" width="20px" height="20px" viewBox="0 0 20 19" version="1.1">
<g id="surface1">
<path style=" stroke:none;fill-rule:nonzero;fill:rgb(0%,0%,0%);fill-opacity:1;" d="M 8.761719 0.121094 C 7.320312 0.296875 5.832031 0.855469 4.5625 1.699219 C 3.554688 2.367188 3.519531 2.453125 4.332031 2.253906 C 5.886719 1.867188 7.304688 1.945312 9.039062 2.507812 C 10.164062 2.871094 11.539062 3.574219 12.6875 4.386719 C 13.542969 4.996094 14.207031 5.558594 15.4375 6.726562 C 16.789062 8.011719 17.023438 8.167969 17.5625 8.160156 C 18.386719 8.15625 19.1875 7.402344 19.1875 6.625 C 19.1875 5.707031 18.230469 4.050781 17.007812 2.851562 C 15.550781 1.421875 13.867188 0.574219 11.773438 0.210938 C 11.113281 0.0976562 9.398438 0.046875 8.761719 0.121094 Z M 8.761719 0.121094 "/>
<path style=" stroke:none;fill-rule:nonzero;fill:rgb(0%,0%,0%);fill-opacity:1;" d="M 5.5625 2.566406 C 5.476562 2.578125 5.21875 2.621094 4.988281 2.664062 C 4.75 2.699219 4.5625 2.753906 4.5625 2.777344 C 4.5625 2.808594 4.667969 2.882812 4.800781 2.949219 C 5.125 3.109375 5.46875 3.472656 5.636719 3.828125 C 5.757812 4.082031 5.78125 4.226562 5.773438 4.703125 C 5.769531 5.195312 5.726562 5.425781 5.457031 6.359375 C 4.9375 8.144531 4.710938 9.335938 4.632812 10.746094 C 4.488281 13.371094 5.050781 15.484375 6.300781 17.003906 C 6.519531 17.269531 6.710938 17.480469 6.726562 17.460938 C 6.742188 17.449219 6.769531 17.257812 6.78125 17.039062 C 6.820312 16.5 7.011719 16.089844 7.382812 15.769531 C 7.792969 15.40625 8.195312 15.246094 9.28125 14.980469 C 11.238281 14.507812 12.757812 13.984375 14.050781 13.347656 C 16.320312 12.21875 17.96875 10.632812 18.6875 8.902344 C 18.957031 8.253906 18.949219 8.226562 18.476562 8.46875 C 17.945312 8.734375 17.585938 8.78125 17.113281 8.65625 C 16.550781 8.503906 16.300781 8.324219 15.21875 7.261719 C 12.382812 4.496094 10.164062 3.175781 7.449219 2.660156 C 7.085938 2.585938 5.8125 2.527344 5.5625 2.566406 Z M 5.5625 2.566406 "/>
<path style=" stroke:none;fill-rule:nonzero;fill:rgb(0%,0%,0%);fill-opacity:1;" d="M 2.96875 3.261719 C 2.605469 3.4375 2.292969 3.753906 1.835938 4.40625 C 0.675781 6.082031 0.09375 8.191406 0.257812 10.140625 C 0.5 13.082031 2.054688 15.695312 4.53125 17.332031 C 4.992188 17.636719 6.539062 18.386719 6.710938 18.386719 C 6.835938 18.386719 6.84375 18.289062 6.71875 18.222656 C 6.542969 18.125 5.730469 17.210938 5.449219 16.789062 C 4.511719 15.394531 4.0625 13.683594 4.0625 11.523438 C 4.0625 9.820312 4.289062 8.398438 4.886719 6.328125 C 5.394531 4.605469 5.335938 3.949219 4.675781 3.507812 C 4.113281 3.132812 3.429688 3.039062 2.96875 3.261719 Z M 2.96875 3.261719 "/>
<path style=" stroke:none;fill-rule:nonzero;fill:rgb(0%,0%,0%);fill-opacity:1;" d="M 19.507812 8.199219 C 19.054688 9.664062 18.46875 10.632812 17.375 11.695312 C 15.679688 13.339844 13.230469 14.546875 9.90625 15.371094 C 8.136719 15.8125 7.8125 15.957031 7.511719 16.449219 C 7.367188 16.683594 7.34375 16.792969 7.351562 17.179688 C 7.351562 17.558594 7.382812 17.699219 7.539062 17.992188 C 7.6875 18.289062 7.78125 18.390625 8.054688 18.546875 C 8.550781 18.832031 8.945312 18.898438 10.1875 18.898438 C 11.457031 18.898438 12.132812 18.800781 13.25 18.445312 C 14.710938 17.988281 15.78125 17.34375 16.9375 16.222656 C 18.761719 14.460938 19.742188 12.371094 19.855469 10.007812 C 19.886719 9.269531 19.804688 8.179688 19.695312 7.890625 C 19.648438 7.765625 19.625 7.800781 19.507812 8.199219 Z M 19.507812 8.199219 "/>
</g>
</svg>
