<svg width="389" height="390" xmlns="http://www.w3.org/2000/svg" xmlns:xlink="http://www.w3.org/1999/xlink" xml:space="preserve" overflow="hidden"><defs><clipPath id="clip0"><rect x="2647" y="390" width="389" height="390"/></clipPath></defs><g clip-path="url(#clip0)" transform="translate(-2647 -390)"><path d="M2841.45 390 2840.34 390C2823.33 390.117 2806.83 392.418 2791.11 396.63 2774.56 401.076 2758.88 407.648 2744.4 416.052L2744.36 416.052C2729.57 424.632 2715.95 435.104 2703.98 447.155L2703.94 447.35C2691.99 459.44 2681.56 472.895 2673.04 487.715 2664.63 502.34 2658.05 518.135 2653.58 534.71L2653.58 534.846C2649.3 550.622 2647 567.587 2647 585L2647 585.234C2647 602.648 2649.33 619.554 2653.62 635.603 2658.09 652.314 2664.71 668.129 2673.17 682.734L2673.17 682.773C2681.74 697.534 2692.19 711.087 2704.18 723.06 2716.16 735.052 2729.71 745.485 2744.46 754.006L2744.5 754.006C2759.05 762.43 2774.8 769.021 2791.4 773.448L2791.44 773.448C2807.45 777.738 2824.27 780 2841.61 780L2841.92 780C2859.32 780 2876.17 777.66 2892.24 773.331 2908.86 768.846 2924.61 762.216 2939.14 753.772L2939.18 753.772C2953.91 745.193 2967.4 734.721 2979.37 722.729 2991.24 710.677 3001.75 697.105 3010.31 682.266 3018.68 667.719 3025.1 651.983 3029.58 635.369L3029.58 635.31C3033.86 619.262 3036 602.394 3036 585L3036 584.766C3036 567.353 3033.66 550.446 3029.38 534.398 3024.91 517.725 3018.29 501.95 3009.79 487.403 3001.22 472.524 2990.71 458.933 2978.69 446.901 2966.7 434.967 2953.19 424.574 2938.48 416.052 2923.89 407.609 2908.12 400.998 2891.45 396.552 2875.57 392.262 2858.75 390 2841.43 390L2841.31 390Z" fill-rule="evenodd"/><path d="M2785.38 452C2783.82 452 2782.84 453.133 2782.84 454.539L2782.84 586.895C2782.84 615.741 2788.81 628.416 2799.26 640.369 2813.89 657.223 2834.76 664 2851.53 664 2891.51 664 2921.93 631.326 2921.93 594.219 2921.93 556.408 2890.61 524.398 2853.67 524.398 2831.7 524.398 2816.82 536.644 2816.82 536.644L2816.82 454.578C2816.82 452.937 2815.51 452 2814.28 452L2785.24 452ZM2946.66 481.256C2944.86 481.256 2943.89 482.33 2943.89 483.99L2943.89 523.578 2923.8 523.578C2922.44 523.578 2921.36 524.672 2921.36 526.078L2921.36 554.397C2921.36 556.35 2922.63 557.131 2924.09 557.131L2943.89 557.131 2943.89 606.152C2943.89 626.463 2948.08 638.572 2957.77 648.728 2964.79 655.876 2976.96 663.766 2999.02 663.766L3003.23 663.766C3005.12 663.766 3006 662.477 3006 660.992L3006 633.064C3006 631.443 3004.83 630.33 3003.27 630.33 2996.25 630.33 2988.02 629.451 2983.65 625.174 2978.33 620.018 2978.15 610.019 2978.15 605.449L2978.15 557.111 3003.11 557.111C3004.83 557.111 3006 556.018 3006 554.182L3006 526.644C3006 524.691 3004.83 523.715 3003 523.715L2978.15 523.715 2978.15 484.069C2978.15 482.506 2977.1 481.373 2975.42 481.373L2946.68 481.373ZM2724.92 522.582C2697.23 522.582 2675 539.417 2675 566.603 2675 577.989 2678.71 586.914 2685.88 593.496 2691.73 599.062 2699.73 602.422 2706.03 604.824 2712.66 607.363 2718.96 608.417 2725.39 610.819 2727.93 611.737 2730.27 612.851 2732.41 614.022 2734.36 614.999 2735.92 616.6 2735.92 621.151 2735.92 629.354 2727.93 632.674 2718.57 632.674 2705.5 632.674 2694.19 628.572 2682.88 624.08 2682.1 623.69 2680.93 623.143 2679.76 623.143 2678 623.143 2676.64 624.315 2676.64 626.541L2676.64 653.493C2676.64 655.29 2677.81 655.895 2679.17 656.344 2695.16 661.891 2704.14 663.824 2717.59 663.824 2750.74 663.824 2769.08 643.396 2769.08 618.514 2769.08 601.621 2759.91 588.243 2745.48 582.423 2739.04 579.493 2724.61 575.782 2721.1 574.806 2713.69 572.462 2708.15 570.9 2708.15 565.197 2708.15 558.869 2713.32 553.127 2726.58 553.127 2738.28 552.932 2755.44 559.572 2755.44 559.572 2755.44 559.572 2757.51 560.49 2758.56 560.49 2760.32 560.49 2761.2 558.986 2761.2 557.014L2761.2 530.746C2761.2 529.144 2759.77 528.676 2758.33 528.207 2758.33 528.207 2743.31 522.445 2724.98 522.445ZM2851.43 557.834C2871.61 557.834 2887.86 572.97 2887.86 594.316 2887.86 616.112 2870.44 630.643 2851 630.643 2829.39 630.643 2815.51 612.675 2815.51 593.203 2815.51 576.056 2828.65 557.854 2851.43 557.854Z" fill="#FFFFFF" fill-rule="evenodd"/></g></svg>