<svg width="1338" height="1341" xmlns="http://www.w3.org/2000/svg" xmlns:xlink="http://www.w3.org/1999/xlink" xml:space="preserve" overflow="hidden"><defs><clipPath id="clip0"><rect x="1530" y="567" width="1338" height="1341"/></clipPath></defs><g clip-path="url(#clip0)" transform="translate(-1530 -567)"><path d="M2233.15 1144.09C2302.57 1144.09 2358.46 1196.14 2358.46 1269.53 2358.46 1344.48 2298.54 1394.44 2231.68 1394.44 2157.35 1394.44 2109.6 1332.66 2109.6 1265.71 2109.6 1206.75 2154.8 1144.16 2233.15 1144.16ZM1798.22 1022.41 1798.01 1022.88C1702.77 1022.88 1626.31 1080.76 1626.31 1174.24 1626.31 1213.39 1639.07 1244.08 1663.73 1266.71 1683.85 1285.85 1711.37 1297.41 1733.04 1305.66 1755.84 1314.39 1777.51 1318.02 1799.63 1326.28 1808.37 1329.43 1816.41 1333.26 1823.77 1337.29 1830.48 1340.65 1835.85 1346.16 1835.85 1361.8 1835.85 1390.01 1808.37 1401.43 1776.17 1401.43 1731.22 1401.43 1692.31 1387.32 1653.41 1371.88 1650.73 1370.53 1646.71 1368.65 1642.68 1368.65 1636.63 1368.65 1631.95 1372.68 1631.95 1380.34L1631.95 1473.01C1631.95 1479.19 1635.97 1481.27 1640.65 1482.81 1695.65 1501.89 1726.54 1508.53 1772.8 1508.53 1886.82 1508.53 1949.91 1438.29 1949.91 1352.74 1949.91 1294.65 1918.36 1248.65 1868.73 1228.64 1846.58 1218.56 1796.95 1205.8 1784.87 1202.45 1759.39 1194.39 1740.33 1189.02 1740.33 1169.41 1740.33 1147.65 1758.11 1127.91 1803.72 1127.91 1843.97 1127.24 1902.99 1150.07 1902.99 1150.07 1902.99 1150.07 1910.11 1153.22 1913.72 1153.22 1919.77 1153.22 1922.8 1148.05 1922.8 1141.27L1922.8 1050.95C1922.8 1045.44 1917.88 1043.83 1912.93 1042.22 1912.93 1042.22 1861.27 1022.41 1798.22 1022.41ZM2560.71 880.78C2554.52 880.78 2551.18 884.473 2551.18 890.181L2551.18 1026.3 2482.08 1026.3C2477.4 1026.3 2473.69 1030.06 2473.69 1034.9L2473.69 1132.27C2473.69 1138.99 2478.05 1141.67 2483.08 1141.67L2551.18 1141.67 2551.18 1310.23C2551.18 1380.07 2565.59 1421.71 2598.92 1456.63 2623.07 1481.2 2664.93 1508.33 2740.8 1508.33L2755.28 1508.33C2761.79 1508.33 2764.81 1503.9 2764.81 1498.8L2764.81 1402.77C2764.81 1397.19 2760.79 1393.37 2755.42 1393.37 2731.28 1393.37 2702.97 1390.34 2687.94 1375.64 2669.64 1357.91 2669.02 1323.53 2669.02 1307.81L2669.02 1141.6 2754.87 1141.6C2760.79 1141.6 2764.81 1137.85 2764.81 1131.53L2764.81 1036.84C2764.81 1030.13 2760.79 1026.77 2754.49 1026.77L2669.02 1026.77 2669.02 890.452C2669.02 885.078 2665.41 881.182 2659.63 881.182L2560.78 881.182ZM2005.97 780.184C2000.6 780.184 1997.23 784.08 1997.23 788.915L1997.23 1244.02C1997.23 1343.2 2017.77 1386.78 2053.71 1427.88 2104.03 1485.84 2175.82 1509.14 2233.5 1509.14 2371.01 1509.14 2475.65 1396.79 2475.65 1269.2 2475.65 1139.19 2367.92 1029.12 2240.86 1029.12 2165.29 1029.12 2114.11 1071.23 2114.11 1071.23L2114.11 789.049C2114.11 783.406 2109.6 780.184 2105.37 780.184ZM2195.01 567 2198.35 567 2198.76 567C2258.33 567 2316.19 574.777 2370.81 589.529 2428.15 604.816 2482.39 627.548 2532.57 656.579 2583.17 685.881 2629.64 721.617 2670.88 762.652 2712.22 804.023 2748.37 850.755 2777.85 901.917 2807.08 951.936 2829.85 1006.18 2845.23 1063.51 2859.95 1118.69 2868 1176.82 2868 1236.7L2868 1237.5C2868 1297.31 2860.64 1355.31 2845.92 1410.49L2845.92 1410.69C2830.51 1467.82 2808.43 1521.93 2779.64 1571.95 2750.19 1622.97 2714.04 1669.64 2673.22 1711.08 2632.04 1752.31 2585.64 1788.32 2534.98 1817.82L2534.84 1817.82C2484.86 1846.85 2430.69 1869.65 2373.52 1885.07 2318.25 1899.95 2260.29 1908 2200.44 1908L2199.38 1908C2139.74 1908 2081.88 1900.22 2026.81 1885.47L2026.68 1885.47C1969.58 1870.25 1915.41 1847.59 1865.36 1818.62L1865.22 1818.62C1814.49 1789.32 1767.88 1753.45 1726.68 1712.21 1685.43 1671.05 1649.49 1624.44 1620.01 1573.69L1620.01 1573.55C1590.91 1523.34 1568.15 1468.96 1552.77 1411.5 1538.01 1356.31 1530 1298.18 1530 1238.3L1530 1237.5C1530 1177.63 1537.91 1119.29 1552.63 1065.05L1552.63 1064.58C1568.01 1007.59 1590.64 953.277 1619.57 902.989 1648.87 852.031 1684.75 805.767 1725.85 764.196L1725.99 763.525C1767.16 722.088 1814.01 686.081 1864.88 656.579L1865.02 656.579C1914.82 627.682 1968.75 605.084 2025.68 589.797 2079.75 575.314 2136.5 567.402 2195.01 567Z" fill-rule="evenodd"/></g></svg>